<svg width="32" height="32" viewBox="0 0 32 32" fill="none" xmlns="http://www.w3.org/2000/svg">
<rect width="32" height="32" fill="white"/>
<path d="M30.5662 1H1.43345C1.19413 1 1 1.19576 1 1.43421V30.5659C1 30.8039 1.19413 31 1.43345 31H30.5662C30.8056 31 31 30.8039 31 30.5659V1.43421C31 1.19576 30.8056 1 30.5662 1ZM21.2361 26.6242C19.9064 26.6242 19.3217 26.3161 18.4412 25.4006C17.5608 24.4846 17.2289 23.3756 17.2289 21.7718C17.2289 20.7141 17.3892 18.4759 17.7056 15.0587L18.3172 8.52773H13.511C13.1927 14.0301 12.8112 18.0506 12.3642 20.5907C11.9195 23.1302 11.4274 24.7704 10.8901 25.5106C10.3528 26.2508 9.62363 26.6222 8.70028 26.6222C8.00498 26.6222 7.42031 26.4173 6.94396 26.0101C6.46765 25.6008 6.22834 25.065 6.22834 24.3995C6.22834 23.7335 6.63697 22.8963 7.45418 21.792C8.64838 20.1876 9.54008 18.5231 10.1293 16.7907C10.7185 15.0587 11.1655 12.3049 11.468 8.52514H9.92612C8.68674 8.52514 7.73635 8.79953 7.07941 9.35298C6.42025 9.90437 5.79717 10.6938 5.21023 11.7219H4.39302C4.83096 10.1046 5.39758 8.77515 6.09516 7.73116C6.79046 6.68727 7.50381 6.00787 8.23752 5.69068C8.96891 5.37345 10.2737 5.21597 12.1475 5.21597H26.6159V8.52773H21.3535L20.8995 15.4208C20.8096 16.6153 20.7641 17.6502 20.7641 18.5273C20.7641 20.6285 21.1704 22.0098 21.5003 22.3698C21.8296 22.7324 22.1729 23.0628 22.8682 23.0628C24.32 23.0628 25.5954 22.1473 25.8663 20.3184H26.6836C26.1847 24.5209 24.092 26.6222 21.2361 26.6222V26.6242Z" fill="#0BA1DD"/>
</svg>
