<svg width="1247" height="2019" viewBox="0 0 1247 2019" fill="none" xmlns="http://www.w3.org/2000/svg">
<g filter="url(#filter0_f_39_308)">
<path d="M341.073 1807.87C217.795 1551.87 929.215 1506.9 750.573 1308.37C512.573 1043.87 990.027 1075.75 979.073 938.366C955.073 637.366 559.573 843.866 579.073 679.866C598.573 515.866 360.573 234.366 187.573 270.366" stroke="#62ABBB" stroke-opacity="0.59" stroke-width="200"/>
</g>
<path d="M341.073 1807.87C217.795 1551.87 929.215 1506.9 750.573 1308.37C512.573 1043.87 990.027 1075.75 979.073 938.366C955.073 637.366 559.573 843.866 579.073 679.866C598.573 515.866 360.573 234.366 187.573 270.366" stroke="white" stroke-opacity="0.3"/>
<path d="M323.387 1807.87C200.109 1551.87 911.529 1506.9 732.887 1308.37C494.887 1043.87 972.341 1075.75 961.387 938.366C937.387 637.366 541.887 843.866 561.387 679.866C580.887 515.866 342.887 234.366 169.887 270.366" stroke="white" stroke-opacity="0.3"/>
<path d="M305.701 1807.87C182.423 1551.87 893.843 1506.9 715.201 1308.37C477.201 1043.87 954.655 1075.75 943.701 938.366C919.701 637.366 524.201 843.866 543.701 679.866C563.201 515.866 325.201 234.366 152.201 270.366" stroke="white" stroke-opacity="0.3"/>
<path d="M288.015 1807.87C164.737 1551.87 876.157 1506.9 697.515 1308.37C459.515 1043.87 936.969 1075.75 926.015 938.366C902.015 637.366 506.515 843.866 526.015 679.866C545.515 515.866 307.515 234.366 134.515 270.366" stroke="white" stroke-opacity="0.3"/>
<path d="M270.329 1807.87C147.051 1551.87 858.471 1506.9 679.829 1308.37C441.829 1043.87 919.283 1075.75 908.329 938.366C884.329 637.366 488.829 843.866 508.329 679.866C527.829 515.866 289.829 234.366 116.829 270.366" stroke="white" stroke-opacity="0.3"/>
<path d="M252.643 1807.87C129.365 1551.87 840.785 1506.9 662.143 1308.37C424.143 1043.87 901.597 1075.75 890.643 938.366C866.643 637.366 471.143 843.866 490.643 679.866C510.143 515.866 272.143 234.366 99.143 270.366" stroke="white" stroke-opacity="0.3"/>
<defs>
<filter id="filter0_f_39_308" x="-1.52588e-05" y="0.000198364" width="1246.47" height="2018.45" filterUnits="userSpaceOnUse" color-interpolation-filters="sRGB">
<feFlood flood-opacity="0" result="BackgroundImageFix"/>
<feBlend mode="normal" in="SourceGraphic" in2="BackgroundImageFix" result="shape"/>
<feGaussianBlur stdDeviation="83.6" result="effect1_foregroundBlur_39_308"/>
</filter>
</defs>
</svg>
